# xmcd
#
# Track frame offsets:
#	150
#	12795
#	27645
#	42045
#	55635
#	65862
#	79817
#	93640
#	106900
#	120675
#	135620
#	149360
#
# Disc length: 2198 seconds
#
# Revision: 0
# Processed by: cddbd v1.5.2PL0 Copyright (c) Steve Scherf et al.
# Submitted via: EasyCDDAExtractor 16.0.6.1
#
DISCID=a408940c
DTITLE=Συλλογικός δίσκος - Τσιφτετέλια-Music Box
DYEAR=1996
DGENRE=Ποικίλη
TTITLE0=Άνευ ερμηνευτού - Τσιφτετέλι [οργανικό, Τάκη Σούκα]
TTITLE1=Μπαρμπεράκης Μανώλης - Ντίλι ντέλι [Ι. Καλατζή-Λ. Μπουρνέλη]
TTITLE2=Αγγελόπουλος Μανώλης - Το θύμα [Α. Αλεξάκη-Κ. Καρουσάκη]
TTITLE3=Σιδέρη Σοφία - Μπαρμπα Κώστας [Ι. Καλατζή-Λ. Μπουρνέλη]
TTITLE4=Μπαρμπεράκης Μανώλης - Ντάχτιρντι και ντάχτιρντο [Ι. Καλατζή-Λ. Μπουρν
TTITLE4=έλη]
TTITLE5=Άνευ ερμηνευτού - Το μερακλίδικο τσιφτετέλι [οργανικό, Λ.Μπουρνέλη]
TTITLE6=Άνευ ερμηνευτού - Το τσιφτετέλι του Μπουρνέλη 1970 [οργανικό, Λ. Μπορν
TTITLE6=έλη]
TTITLE7=Σιδέρη Σοφία - Στο πανηγύρι του χωριού [Ι. Καλατζή-Λ. Μπουρνέλη]
TTITLE8=Κύπριος Στράτος-Σιδέρη Σοφία - Μιά γύφτισσα με ζύγωσε [Ι. Καλατζή-Λ. Μ
TTITLE8=πουρνέλη]
TTITLE9=Σακελλαρίου Ρίτα - Εγώ το ξέρω [Σπ. Κεφαλόπουλου-Στρ. Βαλιάνου]
TTITLE10=Σιδέρη Σοφία - Δεν είναι αυτή καλή δουλειά [Ι. Καλατζή-Λ. Μπουρνέλη]
TTITLE11=Μπαρμπεράκης Μανώλης - Και τους εχθρούς μου αγαπώ [Ι. Καλατζή-Λ. Μπου
TTITLE11=ρνέλη]
EXTD=
EXTT0=
EXTT1=
EXTT2=
EXTT3=
EXTT4=
EXTT5=
EXTT6=
EXTT7=
EXTT8=
EXTT9=
EXTT10=
EXTT11=
PLAYORDER=
